<svg width="167" height="59" viewBox="0 0 167 59" fill="none" xmlns="http://www.w3.org/2000/svg">
<path d="M16.308 16.672C16.62 16.408 17.052 16.036 17.604 15.556C18.156 15.052 18.732 14.38 19.332 13.54C19.932 12.676 20.496 11.608 21.024 10.336C21.576 9.04 21.996 7.456 22.284 5.584C22.404 4.672 22.26 3.892 21.852 3.244C21.444 2.572 20.808 2.224 19.944 2.2C18.12 2.152 16.452 2.548 14.94 3.388C13.452 4.204 12.108 5.32 10.908 6.736C9.708 8.128 8.652 9.724 7.74 11.524C6.852 13.324 6.108 15.172 5.508 17.068C4.932 18.94 4.488 20.788 4.176 22.612C3.888 24.412 3.744 26.02 3.744 27.436C3.744 30.22 4.08 32.596 4.752 34.564C5.448 36.532 6.276 38.152 7.236 39.424C8.22 40.672 9.228 41.584 10.26 42.16C11.316 42.736 12.192 43.012 12.888 42.988C13.992 42.964 15.036 42.664 16.02 42.088C17.004 41.536 17.916 40.816 18.756 39.928C19.62 39.016 20.4 37.984 21.096 36.832C21.816 35.68 22.464 34.504 23.04 33.304C23.616 32.08 24.12 30.892 24.552 29.74C25.008 28.588 25.392 27.556 25.704 26.644C26.016 25.732 26.256 24.988 26.424 24.412C26.592 23.836 26.688 23.524 26.712 23.476C26.832 23.284 26.964 23.164 27.108 23.116C27.276 23.044 27.528 23.128 27.864 23.368C27.936 23.416 27.924 23.776 27.828 24.448C27.732 25.12 27.552 25.984 27.288 27.04C27.024 28.072 26.664 29.26 26.208 30.604C25.752 31.924 25.2 33.268 24.552 34.636C23.928 35.98 23.208 37.3 22.392 38.596C21.576 39.892 20.664 41.032 19.656 42.016C18.672 43.024 17.58 43.816 16.38 44.392C15.204 44.968 13.932 45.232 12.564 45.184C11.676 45.16 10.752 44.992 9.792 44.68C8.832 44.368 7.896 43.9 6.984 43.276C6.072 42.676 5.208 41.908 4.392 40.972C3.576 40.036 2.856 38.92 2.232 37.624C1.608 36.304 1.116 34.804 0.756 33.124C0.396 31.42 0.216 29.512 0.216 27.4C0.216 25.912 0.372 24.184 0.684 22.216C0.996 20.248 1.476 18.232 2.124 16.168C2.796 14.104 3.648 12.1 4.68 10.156C5.736 8.188 6.996 6.46 8.46 4.972C9.948 3.484 11.652 2.344 13.572 1.552C15.516 0.735999 17.7 0.459999 20.124 0.723997C20.748 0.795998 21.348 0.999999 21.924 1.336C22.5 1.648 22.992 2.056 23.4 2.56C23.808 3.064 24.108 3.652 24.3 4.324C24.516 4.972 24.564 5.656 24.444 6.376C24.156 8.128 23.676 9.676 23.004 11.02C22.332 12.364 21.624 13.504 20.88 14.44C20.16 15.376 19.476 16.096 18.828 16.6C18.18 17.104 17.748 17.392 17.532 17.464C17.316 17.536 17.088 17.572 16.848 17.572C16.632 17.548 16.452 17.5 16.308 17.428C16.188 17.332 16.116 17.224 16.092 17.104C16.068 16.96 16.14 16.816 16.308 16.672ZM28.0446 2.092C28.2366 1.972 28.5006 1.912 28.8366 1.912C29.1726 1.888 29.5086 1.912 29.8446 1.984C30.1806 2.056 30.4806 2.152 30.7446 2.272C31.0086 2.392 31.1526 2.524 31.1766 2.668C31.2006 2.74 31.1406 3.34 30.9966 4.468C30.8526 5.596 30.6726 7.06 30.4566 8.86C30.2406 10.636 30.0006 12.652 29.7366 14.908C29.4966 17.164 29.2686 19.468 29.0526 21.82C28.8606 24.172 28.7046 26.464 28.5846 28.696C28.4886 30.928 28.4646 32.92 28.5126 34.672C28.5606 36.4 28.7166 37.792 28.9806 38.848C29.2446 39.88 29.6526 40.384 30.2046 40.36C30.7086 40.336 31.2006 39.976 31.6806 39.28C32.1606 38.584 32.6046 37.696 33.0126 36.616C33.4446 35.512 33.8406 34.3 34.2006 32.98C34.5846 31.636 34.9206 30.316 35.2086 29.02C35.5206 27.724 35.7846 26.524 36.0006 25.42C36.2406 24.292 36.4326 23.404 36.5766 22.756C36.6246 22.492 36.7806 22.384 37.0446 22.432C37.3326 22.456 37.5126 22.6 37.5846 22.864C37.6086 22.936 37.5726 23.26 37.4766 23.836C37.4046 24.412 37.2846 25.156 37.1166 26.068C36.9486 26.98 36.7446 28 36.5046 29.128C36.2646 30.256 35.9766 31.408 35.6406 32.584C35.3286 33.76 34.9686 34.912 34.5606 36.04C34.1766 37.144 33.7446 38.128 33.2646 38.992C32.8086 39.856 32.3166 40.552 31.7886 41.08C31.2606 41.608 30.6966 41.86 30.0966 41.836C29.2086 41.812 28.4646 41.428 27.8646 40.684C27.2646 39.94 26.7726 38.932 26.3886 37.66C26.0286 36.388 25.7646 34.912 25.5966 33.232C25.4286 31.552 25.3326 29.776 25.3086 27.904C25.2846 26.008 25.3206 24.064 25.4166 22.072C25.5366 20.056 25.6806 18.112 25.8486 16.24C26.0406 14.344 26.2446 12.556 26.4606 10.876C26.6766 9.172 26.8806 7.684 27.0726 6.412C27.2886 5.116 27.4806 4.084 27.6486 3.316C27.8406 2.548 27.9726 2.14 28.0446 2.092ZM45.7062 20.128C45.9702 20.104 46.2582 20.128 46.5702 20.2C46.8822 20.248 47.1702 20.344 47.4342 20.488C47.7222 20.608 47.9622 20.752 48.1542 20.92C48.3462 21.088 48.4422 21.244 48.4422 21.388C48.4422 21.46 48.4182 21.784 48.3702 22.36C48.3222 22.936 48.2622 23.668 48.1902 24.556C48.1422 25.444 48.0822 26.44 48.0102 27.544C47.9382 28.648 47.8782 29.776 47.8302 30.928C47.8062 32.08 47.7822 33.208 47.7582 34.312C47.7342 35.416 47.7462 36.412 47.7942 37.3C47.8422 38.164 47.9262 38.872 48.0462 39.424C48.1662 39.976 48.3342 40.288 48.5502 40.36C48.8622 40.456 49.2702 40.108 49.7742 39.316C50.2782 38.5 50.8062 37.456 51.3582 36.184C51.9342 34.912 52.5102 33.52 53.0862 32.008C53.6622 30.472 54.1902 29.032 54.6702 27.688C55.1502 26.344 55.5582 25.204 55.8942 24.268C56.2302 23.332 56.4342 22.804 56.5062 22.684C56.6022 22.54 56.7222 22.456 56.8662 22.432C57.0342 22.384 57.1782 22.396 57.2982 22.468C57.4182 22.516 57.5022 22.612 57.5502 22.756C57.5982 22.9 57.5742 23.056 57.4782 23.224C57.4302 23.32 57.3102 23.668 57.1182 24.268C56.9502 24.868 56.7222 25.636 56.4342 26.572C56.1702 27.508 55.8462 28.552 55.4622 29.704C55.1022 30.856 54.6942 32.032 54.2382 33.232C53.8062 34.432 53.3502 35.608 52.8702 36.76C52.3902 37.888 51.8982 38.896 51.3942 39.784C50.8902 40.672 50.3742 41.392 49.8462 41.944C49.3422 42.496 48.8382 42.784 48.3342 42.808C47.8302 42.856 47.3862 42.676 47.0022 42.268C46.6422 41.884 46.3302 41.344 46.0662 40.648C45.8022 39.976 45.5742 39.172 45.3822 38.236C45.2142 37.3 45.0822 36.292 44.9862 35.212C44.7702 35.668 44.4942 36.148 44.1582 36.652C43.8462 37.156 43.4862 37.636 43.0782 38.092C42.6702 38.548 42.2262 38.932 41.7462 39.244C41.2902 39.556 40.8102 39.736 40.3062 39.784C39.6822 39.856 38.9502 39.796 38.1102 39.604C37.2942 39.388 36.5022 38.968 35.7342 38.344C34.9902 37.696 34.3542 36.796 33.8262 35.644C33.2982 34.468 33.0342 32.956 33.0342 31.108C33.0342 30.844 33.0702 30.388 33.1422 29.74C33.2142 29.092 33.3582 28.36 33.5742 27.544C33.7662 26.728 34.0422 25.876 34.4022 24.988C34.7862 24.076 35.2662 23.248 35.8422 22.504C36.4422 21.736 37.1622 21.1 38.0022 20.596C38.8422 20.092 39.8382 19.816 40.9902 19.768C42.0222 19.72 42.8862 19.888 43.5822 20.272C44.2782 20.632 44.8422 21.088 45.2742 21.64C45.4182 20.656 45.5622 20.152 45.7062 20.128ZM40.0182 38.344C40.7382 38.344 41.3622 38.056 41.8902 37.48C42.4422 36.88 42.9102 36.184 43.2942 35.392C43.6782 34.6 43.9902 33.796 44.2302 32.98C44.4702 32.164 44.6622 31.54 44.8062 31.108C44.7822 29.812 44.7942 28.564 44.8422 27.364C44.8902 26.164 44.9502 25.06 45.0222 24.052C44.9022 23.14 44.5302 22.372 43.9062 21.748C43.2822 21.124 42.3582 20.86 41.1342 20.956C40.5102 21.004 39.9102 21.376 39.3342 22.072C38.7822 22.768 38.2782 23.608 37.8222 24.592C37.3902 25.576 37.0422 26.644 36.7782 27.796C36.5382 28.924 36.4302 29.956 36.4542 30.892C36.4542 31.084 36.4662 31.408 36.4902 31.864C36.5142 32.296 36.5622 32.788 36.6342 33.34C36.7302 33.892 36.8502 34.468 36.9942 35.068C37.1382 35.644 37.3422 36.184 37.6062 36.688C37.8702 37.168 38.1942 37.564 38.5782 37.876C38.9862 38.188 39.4662 38.344 40.0182 38.344ZM68.7608 20.992C68.8568 19.792 69.1568 18.844 69.6608 18.148C70.1888 17.428 70.8128 16.912 71.5328 16.6C72.2768 16.264 73.0688 16.096 73.9088 16.096C74.7488 16.096 75.5408 16.192 76.2848 16.384C76.3808 16.408 76.4648 16.48 76.5368 16.6C76.6088 16.696 76.6448 16.816 76.6448 16.96C76.6448 17.08 76.5968 17.2 76.5008 17.32C76.4048 17.416 76.2608 17.476 76.0688 17.5C75.6608 17.572 75.2528 17.68 74.8448 17.824C74.4368 17.968 74.0528 18.196 73.6928 18.508C73.3328 18.796 73.0208 19.192 72.7568 19.696C72.4928 20.176 72.2888 20.8 72.1448 21.568C72.0248 22.264 72.0368 23.116 72.1808 24.124C72.3488 25.132 72.5888 26.248 72.9008 27.472C73.2368 28.672 73.6088 29.944 74.0168 31.288C74.4488 32.632 74.8688 33.976 75.2768 35.32C76.1408 34.336 77.0048 33.328 77.8688 32.296C78.7328 31.24 79.5608 30.16 80.3528 29.056C81.1448 27.928 81.8768 26.776 82.5488 25.6C83.2208 24.424 83.7968 23.224 84.2768 22C84.3488 21.784 84.4688 21.652 84.6368 21.604C84.8048 21.532 84.9608 21.532 85.1048 21.604C85.2488 21.676 85.3688 21.832 85.4648 22.072C85.5608 22.288 85.5848 22.576 85.5368 22.936C85.3928 23.944 84.9968 25.012 84.3488 26.14C83.7248 27.268 82.9448 28.432 82.0088 29.632C81.0968 30.832 80.0888 32.044 78.9848 33.268C77.9048 34.492 76.8248 35.692 75.7448 36.868C76.1768 38.38 76.5368 39.808 76.8248 41.152C77.1128 42.52 77.2328 43.744 77.1848 44.824C77.1608 45.424 77.0048 46.096 76.7168 46.84C76.4288 47.584 76.0088 48.28 75.4568 48.928C74.9288 49.6 74.2688 50.152 73.4768 50.584C72.6848 51.04 71.7848 51.256 70.7768 51.232C69.6008 51.184 68.7008 50.8 68.0768 50.08C67.4768 49.384 67.1768 48.268 67.1768 46.732C67.1768 46.204 67.3088 45.628 67.5728 45.004C67.8608 44.404 68.2328 43.756 68.6888 43.06C69.1688 42.388 69.7328 41.668 70.3808 40.9C71.0288 40.132 71.7248 39.328 72.4688 38.488C72.2048 37.432 71.9288 36.328 71.6408 35.176C71.3528 34 71.0528 32.836 70.7408 31.684C70.4528 30.532 70.1768 29.404 69.9128 28.3C69.6488 27.196 69.4208 26.164 69.2288 25.204C68.8448 26.092 68.3528 27.016 67.7528 27.976C67.1528 28.912 66.4928 29.872 65.7728 30.856C65.0768 31.84 64.3328 32.848 63.5408 33.88C62.7488 34.912 61.9688 35.944 61.2008 36.976C61.7288 38.896 62.1968 40.78 62.6048 42.628C63.0128 44.5 63.2288 46.168 63.2528 47.632C63.3008 49.72 62.7608 51.364 61.6328 52.564C60.5048 53.764 58.9208 54.34 56.8808 54.292C54.5288 54.22 53.3288 52.636 53.2808 49.54C53.2568 48.676 53.3648 47.812 53.6048 46.948C53.8208 46.108 54.1328 45.244 54.5408 44.356C54.9488 43.492 55.4288 42.604 55.9808 41.692C56.5568 40.804 57.1688 39.904 57.8168 38.992C57.4808 37.672 57.1448 36.328 56.8088 34.96C56.4728 33.568 56.1728 32.26 55.9088 31.036C55.6448 29.788 55.4408 28.648 55.2968 27.616C55.1528 26.56 55.1048 25.696 55.1528 25.024C55.2008 24.232 55.4048 23.488 55.7648 22.792C56.1248 22.072 56.5568 21.46 57.0608 20.956C57.5648 20.452 58.1288 20.068 58.7528 19.804C59.3768 19.54 59.9768 19.444 60.5528 19.516C61.1288 19.564 61.6568 19.804 62.1368 20.236C62.6408 20.644 63.0368 21.292 63.3248 22.18C63.3488 22.276 63.3368 22.396 63.2888 22.54C63.2408 22.66 63.1688 22.768 63.0728 22.864C62.9768 22.936 62.8568 22.984 62.7128 23.008C62.5928 23.008 62.4608 22.936 62.3168 22.792C62.0288 22.48 61.6568 22.312 61.2008 22.288C60.7688 22.24 60.3488 22.336 59.9408 22.576C59.5328 22.792 59.1848 23.152 58.8968 23.656C58.6088 24.16 58.4768 24.808 58.5008 25.6C58.5488 26.68 58.7888 28.06 59.2208 29.74C59.6528 31.42 60.1448 33.22 60.6968 35.14C61.4408 34.156 62.1848 33.16 62.9288 32.152C63.6968 31.12 64.4288 30.076 65.1248 29.02C65.8448 27.94 66.5168 26.848 67.1408 25.744C67.7648 24.64 68.3168 23.512 68.7968 22.36C68.7248 21.88 68.7128 21.424 68.7608 20.992ZM59.5808 47.74C59.5328 46.996 59.3888 46.036 59.1488 44.86C58.9328 43.708 58.6568 42.436 58.3208 41.044C57.3128 42.58 56.4848 44.092 55.8368 45.58C55.2128 47.092 54.8888 48.568 54.8648 50.008C54.8648 50.32 54.9128 50.644 55.0088 50.98C55.1048 51.316 55.2488 51.628 55.4408 51.916C55.6328 52.204 55.8608 52.432 56.1248 52.6C56.4128 52.792 56.7368 52.876 57.0968 52.852C58.0088 52.78 58.6568 52.264 59.0408 51.304C59.4488 50.368 59.6288 49.18 59.5808 47.74ZM73.4768 44.968C73.5008 44.416 73.4528 43.72 73.3328 42.88C73.2128 42.064 73.0448 41.152 72.8288 40.144C71.6768 41.512 70.7168 42.784 69.9488 43.96C69.2048 45.16 68.8088 46.24 68.7608 47.2C68.7368 47.512 68.7728 47.824 68.8688 48.136C68.9648 48.448 69.1088 48.724 69.3008 48.964C69.5168 49.228 69.7688 49.432 70.0568 49.576C70.3448 49.744 70.6688 49.816 71.0288 49.792C71.4608 49.768 71.8208 49.6 72.1088 49.288C72.4208 48.976 72.6728 48.58 72.8648 48.1C73.0568 47.644 73.2008 47.14 73.2968 46.588C73.3928 46.036 73.4528 45.496 73.4768 44.968ZM93.6953 20.704C93.7673 20.584 93.9713 20.44 94.3073 20.272C94.6673 20.104 95.0273 19.972 95.3873 19.876C95.7473 19.78 96.0593 19.744 96.3233 19.768C96.6113 19.792 96.7433 19.924 96.7193 20.164C96.5993 20.932 96.5273 21.856 96.5033 22.936C96.5033 23.992 96.5153 25.156 96.5393 26.428C96.5633 27.7 96.5993 29.056 96.6473 30.496C96.6953 31.936 96.7433 33.412 96.7913 34.924C98.5193 32.716 100.139 30.58 101.651 28.516C103.163 26.452 104.363 24.556 105.251 22.828C105.323 22.684 105.419 22.564 105.539 22.468C105.683 22.372 105.815 22.324 105.935 22.324C106.079 22.324 106.187 22.396 106.259 22.54C106.331 22.66 106.331 22.876 106.259 23.188C106.067 23.98 105.671 24.928 105.071 26.032C104.495 27.112 103.775 28.288 102.911 29.56C102.071 30.832 101.123 32.176 100.067 33.592C99.0353 35.008 97.9673 36.436 96.8633 37.876C96.8873 40.396 96.8273 42.868 96.6833 45.292C96.5633 47.716 96.2633 49.888 95.7833 51.808C95.3033 53.728 94.6073 55.276 93.6953 56.452C92.8073 57.652 91.6073 58.288 90.0953 58.36C89.5433 58.384 88.9913 58.324 88.4393 58.18C87.8873 58.036 87.3833 57.796 86.9273 57.46C86.4953 57.124 86.1233 56.692 85.8113 56.164C85.5233 55.636 85.3673 54.988 85.3433 54.22C85.3193 53.308 85.5233 52.276 85.9553 51.124C86.3873 49.996 86.9753 48.784 87.7193 47.488C88.4873 46.192 89.3633 44.836 90.3473 43.42C91.3553 42.004 92.4113 40.576 93.5153 39.136C93.5153 38.44 93.5153 37.756 93.5153 37.084C93.5153 36.388 93.5033 35.704 93.4793 35.032C93.3113 35.752 93.0593 36.424 92.7233 37.048C92.4113 37.672 92.0393 38.212 91.6073 38.668C91.1753 39.124 90.6953 39.484 90.1673 39.748C89.6633 40.012 89.1473 40.132 88.6193 40.108C88.2833 40.084 87.8633 40.036 87.3593 39.964C86.8793 39.868 86.3633 39.712 85.8113 39.496C85.2833 39.256 84.7433 38.932 84.1913 38.524C83.6633 38.092 83.1713 37.54 82.7153 36.868C82.2833 36.196 81.9113 35.368 81.5993 34.384C81.2873 33.4 81.0953 32.236 81.0233 30.892C81.0233 30.7 81.0353 30.292 81.0593 29.668C81.0593 29.044 81.1433 28.324 81.3113 27.508C81.4553 26.668 81.6833 25.78 81.9953 24.844C82.3313 23.884 82.7873 23.008 83.3633 22.216C83.9633 21.4 84.7073 20.704 85.5953 20.128C86.5073 19.552 87.6233 19.204 88.9433 19.084C89.5193 19.036 90.0473 19.084 90.5273 19.228C91.0073 19.348 91.4273 19.528 91.7873 19.768C92.1713 19.984 92.4833 20.224 92.7233 20.488C92.9633 20.752 93.1193 20.992 93.1913 21.208C93.2633 21.4 93.2753 21.592 93.2273 21.784C93.1793 21.952 93.1073 22.096 93.0113 22.216C92.9393 22.336 92.8433 22.42 92.7233 22.468C92.6273 22.492 92.5553 22.456 92.5073 22.36C92.3633 22.072 92.1593 21.82 91.8953 21.604C91.6553 21.364 91.3673 21.172 91.0313 21.028C90.7193 20.884 90.3833 20.788 90.0233 20.74C89.6633 20.692 89.3153 20.704 88.9793 20.776C88.0433 20.968 87.2393 21.556 86.5673 22.54C85.9193 23.5 85.4153 24.652 85.0553 25.996C84.6953 27.316 84.4793 28.72 84.4073 30.208C84.3593 31.672 84.4673 33.028 84.7313 34.276C85.0193 35.5 85.4753 36.496 86.0993 37.264C86.7233 38.008 87.5393 38.32 88.5473 38.2C89.4113 38.104 90.1313 37.732 90.7073 37.084C91.3073 36.412 91.7873 35.644 92.1473 34.78C92.5313 33.916 92.8193 33.064 93.0113 32.224C93.2033 31.36 93.3353 30.7 93.4073 30.244C93.3833 28.996 93.3593 27.832 93.3353 26.752C93.3113 25.648 93.3113 24.676 93.3353 23.836C93.3593 22.996 93.3953 22.3 93.4433 21.748C93.4913 21.196 93.5753 20.848 93.6953 20.704ZM89.4833 56.92C90.2273 56.968 90.8393 56.608 91.3193 55.84C91.8233 55.072 92.2193 54.016 92.5073 52.672C92.8193 51.328 93.0473 49.756 93.1913 47.956C93.3353 46.18 93.4313 44.308 93.4793 42.34C92.5673 43.564 91.7153 44.752 90.9233 45.904C90.1313 47.056 89.4353 48.136 88.8353 49.144C88.2593 50.152 87.7913 51.064 87.4313 51.88C87.0953 52.72 86.9273 53.428 86.9273 54.004C86.9273 54.34 86.9633 54.664 87.0353 54.976C87.1073 55.312 87.2393 55.612 87.4313 55.876C87.6233 56.14 87.8753 56.368 88.1873 56.56C88.5233 56.752 88.9553 56.872 89.4833 56.92ZM104.92 12.46C105.304 12.436 105.652 12.52 105.964 12.712C106.3 12.904 106.576 13.156 106.792 13.468C107.032 13.756 107.212 14.08 107.332 14.44C107.452 14.776 107.512 15.088 107.512 15.376C107.488 16.024 107.392 16.672 107.224 17.32C107.08 17.944 106.912 18.544 106.72 19.12C106.528 19.696 106.324 20.224 106.108 20.704C105.916 21.16 105.748 21.544 105.604 21.856C106.06 22.096 106.552 22.276 107.08 22.396C107.608 22.492 108.124 22.528 108.628 22.504C109.132 22.48 109.6 22.396 110.032 22.252C110.464 22.084 110.824 21.856 111.112 21.568C111.256 21.424 111.424 21.412 111.616 21.532C111.832 21.652 112.024 21.832 112.192 22.072C112.36 22.288 112.48 22.54 112.552 22.828C112.648 23.092 112.648 23.308 112.552 23.476C112.48 23.596 112.3 24.052 112.012 24.844C111.724 25.636 111.424 26.584 111.112 27.688C110.8 28.792 110.5 29.968 110.212 31.216C109.924 32.464 109.744 33.616 109.672 34.672C109.6 35.728 109.66 36.592 109.852 37.264C110.044 37.936 110.464 38.248 111.112 38.2C111.4 38.176 111.796 37.804 112.3 37.084C112.804 36.34 113.344 35.428 113.92 34.348C114.496 33.244 115.072 32.044 115.648 30.748C116.248 29.452 116.8 28.24 117.304 27.112C117.808 25.984 118.228 25.024 118.564 24.232C118.924 23.416 119.14 22.936 119.212 22.792C119.332 22.576 119.476 22.444 119.644 22.396C119.812 22.324 119.968 22.312 120.112 22.36C120.256 22.384 120.364 22.468 120.436 22.612C120.532 22.732 120.568 22.876 120.544 23.044C120.52 23.164 120.352 23.68 120.04 24.592C119.728 25.504 119.308 26.608 118.78 27.904C118.276 29.2 117.676 30.592 116.98 32.08C116.308 33.544 115.612 34.888 114.892 36.112C114.172 37.312 113.44 38.296 112.696 39.064C111.976 39.808 111.292 40.12 110.644 40C109.708 39.832 108.964 39.484 108.412 38.956C107.86 38.404 107.452 37.756 107.188 37.012C106.948 36.244 106.816 35.416 106.792 34.528C106.792 33.616 106.852 32.704 106.972 31.792C107.26 29.656 107.92 27.292 108.952 24.7C108.136 24.916 107.284 24.952 106.396 24.808C105.508 24.664 104.68 24.328 103.912 23.8C103.168 23.248 102.544 22.528 102.04 21.64C101.536 20.728 101.26 19.624 101.212 18.328C101.164 17.488 101.284 16.72 101.572 16.024C101.884 15.304 102.244 14.68 102.652 14.152C103.06 13.624 103.48 13.216 103.912 12.928C104.344 12.64 104.68 12.484 104.92 12.46ZM103.696 18.976C103.72 19.408 103.804 19.792 103.948 20.128C104.092 20.464 104.296 20.764 104.56 21.028C104.68 20.524 104.848 19.888 105.064 19.12C105.28 18.352 105.46 17.62 105.604 16.924C105.748 16.228 105.82 15.628 105.82 15.124C105.844 14.62 105.724 14.368 105.46 14.368C105.316 14.368 105.136 14.5 104.92 14.764C104.704 15.004 104.5 15.34 104.308 15.772C104.116 16.18 103.948 16.66 103.804 17.212C103.684 17.764 103.648 18.352 103.696 18.976ZM128.464 20.128C128.728 20.104 129.016 20.128 129.328 20.2C129.64 20.248 129.928 20.344 130.192 20.488C130.48 20.608 130.72 20.752 130.912 20.92C131.104 21.088 131.2 21.244 131.2 21.388C131.2 21.46 131.176 21.784 131.128 22.36C131.08 22.936 131.02 23.668 130.948 24.556C130.9 25.444 130.84 26.44 130.768 27.544C130.696 28.648 130.636 29.776 130.588 30.928C130.564 32.08 130.54 33.208 130.516 34.312C130.492 35.416 130.504 36.412 130.552 37.3C130.6 38.164 130.684 38.872 130.804 39.424C130.924 39.976 131.092 40.288 131.308 40.36C131.62 40.456 132.028 40.108 132.532 39.316C133.036 38.5 133.564 37.456 134.116 36.184C134.692 34.912 135.268 33.52 135.844 32.008C136.42 30.472 136.948 29.032 137.428 27.688C137.908 26.344 138.316 25.204 138.652 24.268C138.988 23.332 139.192 22.804 139.264 22.684C139.36 22.54 139.48 22.456 139.624 22.432C139.792 22.384 139.936 22.396 140.056 22.468C140.176 22.516 140.26 22.612 140.308 22.756C140.356 22.9 140.332 23.056 140.236 23.224C140.188 23.32 140.068 23.668 139.876 24.268C139.708 24.868 139.48 25.636 139.192 26.572C138.928 27.508 138.604 28.552 138.22 29.704C137.86 30.856 137.452 32.032 136.996 33.232C136.564 34.432 136.108 35.608 135.628 36.76C135.148 37.888 134.656 38.896 134.152 39.784C133.648 40.672 133.132 41.392 132.604 41.944C132.1 42.496 131.596 42.784 131.092 42.808C130.588 42.856 130.144 42.676 129.76 42.268C129.4 41.884 129.088 41.344 128.824 40.648C128.56 39.976 128.332 39.172 128.14 38.236C127.972 37.3 127.84 36.292 127.744 35.212C127.528 35.668 127.252 36.148 126.916 36.652C126.604 37.156 126.244 37.636 125.836 38.092C125.428 38.548 124.984 38.932 124.504 39.244C124.048 39.556 123.568 39.736 123.064 39.784C122.44 39.856 121.708 39.796 120.868 39.604C120.052 39.388 119.26 38.968 118.492 38.344C117.748 37.696 117.112 36.796 116.584 35.644C116.056 34.468 115.792 32.956 115.792 31.108C115.792 30.844 115.828 30.388 115.9 29.74C115.972 29.092 116.116 28.36 116.332 27.544C116.524 26.728 116.8 25.876 117.16 24.988C117.544 24.076 118.024 23.248 118.6 22.504C119.2 21.736 119.92 21.1 120.76 20.596C121.6 20.092 122.596 19.816 123.748 19.768C124.78 19.72 125.644 19.888 126.34 20.272C127.036 20.632 127.6 21.088 128.032 21.64C128.176 20.656 128.32 20.152 128.464 20.128ZM122.776 38.344C123.496 38.344 124.12 38.056 124.648 37.48C125.2 36.88 125.668 36.184 126.052 35.392C126.436 34.6 126.748 33.796 126.988 32.98C127.228 32.164 127.42 31.54 127.564 31.108C127.54 29.812 127.552 28.564 127.6 27.364C127.648 26.164 127.708 25.06 127.78 24.052C127.66 23.14 127.288 22.372 126.664 21.748C126.04 21.124 125.116 20.86 123.892 20.956C123.268 21.004 122.668 21.376 122.092 22.072C121.54 22.768 121.036 23.608 120.58 24.592C120.148 25.576 119.8 26.644 119.536 27.796C119.296 28.924 119.188 29.956 119.212 30.892C119.212 31.084 119.224 31.408 119.248 31.864C119.272 32.296 119.32 32.788 119.392 33.34C119.488 33.892 119.608 34.468 119.752 35.068C119.896 35.644 120.1 36.184 120.364 36.688C120.628 37.168 120.952 37.564 121.336 37.876C121.744 38.188 122.224 38.344 122.776 38.344ZM154.939 18.004C155.827 17.98 156.451 18.316 156.811 19.012C157.171 19.684 157.363 20.584 157.387 21.712C157.435 22.84 157.363 24.136 157.171 25.6C156.979 27.04 156.763 28.528 156.523 30.064C156.283 31.576 156.067 33.064 155.875 34.528C155.707 35.992 155.647 37.3 155.695 38.452C155.719 38.788 155.743 39.112 155.767 39.424C155.791 39.736 155.839 39.952 155.911 40.072C156.007 40.192 156.139 40.192 156.307 40.072C156.499 39.952 156.775 39.616 157.135 39.064C157.543 38.416 158.023 37.552 158.575 36.472C159.151 35.392 159.775 34.168 160.447 32.8C161.119 31.408 161.827 29.896 162.571 28.264C163.315 26.632 164.083 24.952 164.875 23.224C164.947 23.056 165.055 22.96 165.199 22.936C165.367 22.912 165.511 22.936 165.631 23.008C165.775 23.08 165.883 23.188 165.955 23.332C166.051 23.476 166.063 23.632 165.991 23.8C165.727 24.424 165.355 25.336 164.875 26.536C164.419 27.736 163.891 29.056 163.291 30.496C162.691 31.912 162.031 33.364 161.311 34.852C160.615 36.316 159.895 37.636 159.151 38.812C158.407 39.964 157.651 40.888 156.883 41.584C156.139 42.304 155.419 42.592 154.723 42.448C154.123 42.328 153.691 41.92 153.427 41.224C153.163 40.528 153.007 39.64 152.959 38.56C152.935 37.48 152.983 36.28 153.103 34.96C153.247 33.616 153.427 32.26 153.643 30.892C153.859 29.5 154.075 28.144 154.291 26.824C154.507 25.48 154.675 24.28 154.795 23.224C154.915 22.168 154.963 21.304 154.939 20.632C154.939 19.96 154.795 19.576 154.507 19.48C154.219 19.384 153.895 19.6 153.535 20.128C153.175 20.656 152.803 21.364 152.419 22.252C152.035 23.116 151.651 24.112 151.267 25.24C150.883 26.368 150.511 27.508 150.151 28.66C149.815 29.788 149.503 30.856 149.215 31.864C148.927 32.872 148.699 33.7 148.531 34.348C148.411 35.308 148.279 36.112 148.135 36.76C148.015 37.384 147.931 37.756 147.883 37.876C147.763 38.068 147.547 38.188 147.235 38.236C146.947 38.284 146.647 38.272 146.335 38.2C146.047 38.104 145.783 37.96 145.543 37.768C145.303 37.576 145.183 37.336 145.183 37.048C145.183 36.976 145.231 36.532 145.327 35.716C145.447 34.9 145.567 33.904 145.687 32.728C145.807 31.528 145.915 30.256 146.011 28.912C146.131 27.568 146.191 26.32 146.191 25.168C146.215 24.016 146.155 23.068 146.011 22.324C145.891 21.556 145.651 21.184 145.291 21.208C144.691 21.256 144.163 21.58 143.707 22.18C143.251 22.756 142.855 23.5 142.519 24.412C142.207 25.3 141.943 26.284 141.727 27.364C141.511 28.444 141.331 29.488 141.187 30.496C141.043 31.48 140.923 32.38 140.827 33.196C140.731 33.988 140.659 34.552 140.611 34.888C140.563 36.136 140.503 37.192 140.431 38.056C140.359 38.92 140.299 39.448 140.251 39.64C140.131 39.976 139.939 40.18 139.675 40.252C139.435 40.324 139.183 40.324 138.919 40.252C138.655 40.204 138.403 40.12 138.163 40C137.947 39.88 137.815 39.808 137.767 39.784C137.743 39.76 137.719 39.436 137.695 38.812C137.695 38.188 137.707 37.372 137.731 36.364C137.755 35.332 137.779 34.168 137.803 32.872C137.851 31.552 137.899 30.208 137.947 28.84C138.019 27.472 138.079 26.128 138.127 24.808C138.199 23.464 138.271 22.264 138.343 21.208C138.415 20.152 138.487 19.276 138.559 18.58C138.631 17.884 138.703 17.488 138.775 17.392C138.919 17.2 139.111 17.104 139.351 17.104C139.615 17.08 139.879 17.128 140.143 17.248C140.407 17.344 140.635 17.488 140.827 17.68C141.019 17.848 141.115 18.016 141.115 18.184C141.115 18.256 141.103 18.508 141.079 18.94C141.079 19.372 141.067 19.924 141.043 20.596C141.043 21.268 141.031 22.048 141.007 22.936C140.983 23.8 140.959 24.712 140.935 25.672C141.151 24.928 141.403 24.208 141.691 23.512C141.979 22.816 142.303 22.204 142.663 21.676C143.023 21.148 143.431 20.728 143.887 20.416C144.343 20.08 144.847 19.9 145.399 19.876C146.095 19.852 146.671 20.068 147.127 20.524C147.583 20.98 147.943 21.604 148.207 22.396C148.471 23.164 148.651 24.052 148.747 25.06C148.867 26.044 148.927 27.076 148.927 28.156C149.263 27.004 149.647 25.828 150.079 24.628C150.535 23.428 151.015 22.336 151.519 21.352C152.047 20.368 152.587 19.564 153.139 18.94C153.715 18.316 154.315 18.004 154.939 18.004Z" fill="white"/>
</svg>
