<svg width="26" height="26" viewBox="0 0 26 26" fill="none" xmlns="http://www.w3.org/2000/svg">
<mask id="path-1-outside-1" maskUnits="userSpaceOnUse" x="0" y="0" width="26" height="26" fill="black">
<rect fill="white" width="26" height="26"/>
<path fill-rule="evenodd" clip-rule="evenodd" d="M20.6646 16.9958C21.5139 15.5259 22 13.8197 22 12C22 6.47715 17.5228 2 12 2C6.47715 2 2 6.47715 2 12C2 17.5228 6.47715 22 12 22C13.8316 22 15.5481 21.5076 17.0245 20.648L22.46 22.4897L20.6646 16.9958Z"/>
</mask>
<path d="M20.6646 16.9958L18.9329 15.9952L18.4862 16.7684L18.7635 17.6171L20.6646 16.9958ZM17.0245 20.648L17.6664 18.7537L16.8045 18.4617L16.0182 18.9196L17.0245 20.648ZM22.46 22.4897L21.8182 24.3839L25.6022 25.6661L24.3611 21.8685L22.46 22.4897ZM20 12C20 13.4591 19.6112 14.8213 18.9329 15.9952L22.3963 17.9964C23.4167 16.2305 24 14.1803 24 12H20ZM12 4C16.4183 4 20 7.58172 20 12H24C24 5.37258 18.6274 0 12 0V4ZM4 12C4 7.58172 7.58172 4 12 4V0C5.37258 0 0 5.37258 0 12H4ZM12 20C7.58172 20 4 16.4183 4 12H0C0 18.6274 5.37258 24 12 24V20ZM16.0182 18.9196C14.839 19.6061 13.4686 20 12 20V24C14.1946 24 16.2572 23.4091 18.0309 22.3763L16.0182 18.9196ZM23.1019 20.5955L17.6664 18.7537L16.3827 22.5422L21.8182 24.3839L23.1019 20.5955ZM18.7635 17.6171L20.559 23.111L24.3611 21.8685L22.5656 16.3745L18.7635 17.6171Z" fill="black" mask="url(#path-1-outside-1)"/>
</svg>
