<svg width="25" height="24" viewBox="0 0 25 24" fill="none" xmlns="http://www.w3.org/2000/svg">
<path d="M12.0757 21.7973L12.7031 22.2723L13.3124 21.7741C17.7412 18.152 20.0326 15.7179 22.9702 10.8317C23.6174 9.75525 24.0545 8.2053 23.9945 6.66136C23.9338 5.10023 23.3532 3.42507 21.8177 2.31215C19.0348 0.295187 15.0056 0.637735 12.6793 3.10664C10.353 0.637738 6.32376 0.295187 3.5409 2.31215C0.515678 4.50477 0.671512 8.45101 2.32784 11.4798C3.69939 13.9879 4.95198 15.6833 6.48191 17.2101C7.94627 18.6714 9.65065 19.9616 11.8743 21.6448C11.9409 21.6953 12.0081 21.7461 12.0757 21.7973Z" stroke="black" stroke-width="2" stroke-linecap="round"/>
</svg>
